<svg xmlns="http://www.w3.org/2000/svg" version="1.1" xmlns:xlink="http://www.w3.org/1999/xlink" xmlns:svgjs="http://svgjs.com/svgjs" width="512" height="512" x="0" y="0" viewBox="0 0 60 60" style="enable-background:new 0 0 512 512" xml:space="preserve" class=""><g><link type="text/css" rel="stylesheet" id="dark-mode-custom-link"></link><link type="text/css" rel="stylesheet" id="dark-mode-general-link"></link><style lang="en" type="text/css" id="dark-mode-custom-style"></style><style lang="en" type="text/css" id="dark-mode-native-style"></style><style lang="en" type="text/css" id="dark-mode-native-sheet"></style><path xmlns="http://www.w3.org/2000/svg" d="M49,8H11a2,2,0,0,0-2,2V36a2,2,0,0,0,2,2H49a2,2,0,0,0,2-2V10A2,2,0,0,0,49,8Zm0,28H11V10H49Z" fill="#000000" data-original="#000000" class=""></path><path xmlns="http://www.w3.org/2000/svg" d="M55,40.764V7a3,3,0,0,0-3-3H8A3,3,0,0,0,5,7V40.764L.105,50.553A1,1,0,0,0,0,51v3a2,2,0,0,0,2,2H58a2,2,0,0,0,2-2V51a1,1,0,0,0-.1-.447ZM7,7A1,1,0,0,1,8,6H52a1,1,0,0,1,1,1V40H7ZM6.618,42H53.382l4,8h-15.7l-1.5-3.743A1.99,1.99,0,0,0,38.323,45H21.677a1.99,1.99,0,0,0-1.857,1.258L18.323,50H2.618Zm32.906,8H20.477l1.2-3H38.323ZM58,54H2V52H58Z" fill="#000000" data-original="#000000" class=""></path><path xmlns="http://www.w3.org/2000/svg" d="M32,25a1,1,0,0,0,1-1V21h6v3a1,1,0,0,0,2,0V17a5,5,0,0,0-10,0v7A1,1,0,0,0,32,25Zm1-8a3,3,0,0,1,6,0v2H33Z" fill="#000000" data-original="#000000" class=""></path><path xmlns="http://www.w3.org/2000/svg" d="M24,25a4.969,4.969,0,0,0,2.753-.833l.54.54a1,1,0,0,0,1.414-1.414l-.54-.54A4.969,4.969,0,0,0,29,20V17a5,5,0,0,0-10,0v3A5.006,5.006,0,0,0,24,25Zm-3-8a3,3,0,0,1,6,0v3a2.951,2.951,0,0,1-.3,1.285l-.992-.992a1,1,0,0,0-1.414,1.414l.992.992A2.951,2.951,0,0,1,24,23a3,3,0,0,1-3-3Z" fill="#000000" data-original="#000000" class=""></path><path xmlns="http://www.w3.org/2000/svg" d="M32.293,27.293,28,31.586l-.293-.293a1,1,0,0,0-1.414,1.414l1,1a1,1,0,0,0,1.414,0l5-5a1,1,0,0,0-1.414-1.414Z" fill="#000000" data-original="#000000" class=""></path></g></svg>